<svg width="25" height="26" viewBox="0 0 25 26" fill="none" xmlns="http://www.w3.org/2000/svg">
<path d="M5.95433 22.1862L7.5969 14.9999L2.05322 10.0722L9.44479 9.45627L12.3193 2.68066L15.1938 9.45627L22.5854 10.0722L19.3002 12.9467H18.4789C17.7603 12.9467 17.0417 13.0494 16.3231 13.3574L18.5816 11.4068L14.0645 10.9962L12.3193 6.88975L10.5741 10.9962L6.05699 11.4068L9.44479 14.384L8.41818 18.7984L12.3193 16.4372L12.8326 16.7452C12.6273 17.2585 12.422 17.8744 12.422 18.3877L5.95433 22.1862ZM17.4523 14.9999V18.0798H14.3725V20.133H17.4523V23.2128H19.5055V20.133H22.5854V18.0798H19.5055V14.9999H17.4523Z" fill="black"/>
</svg>
