<svg width="24" height="24" viewBox="0 0 24 24" fill="none" xmlns="http://www.w3.org/2000/svg">
<path d="M4 21V11.625L2.2 13L1 11.4L12 3L23 11.4L21.8 12.975L20 11.625V21H4ZM8 15C7.71667 15 7.47933 14.904 7.288 14.712C7.09667 14.52 7.00067 14.2827 7 14C6.99933 13.7173 7.09533 13.48 7.288 13.288C7.48067 13.096 7.718 13 8 13C8.282 13 8.51967 13.096 8.713 13.288C8.90633 13.48 9.002 13.7173 9 14C8.998 14.2827 8.902 14.5203 8.712 14.713C8.522 14.9057 8.28467 15.0013 8 15ZM12 15C11.7167 15 11.4793 14.904 11.288 14.712C11.0967 14.52 11.0007 14.2827 11 14C10.9993 13.7173 11.0953 13.48 11.288 13.288C11.4807 13.096 11.718 13 12 13C12.282 13 12.5197 13.096 12.713 13.288C12.9063 13.48 13.002 13.7173 13 14C12.998 14.2827 12.902 14.5203 12.712 14.713C12.522 14.9057 12.2847 15.0013 12 15ZM16 15C15.7167 15 15.4793 14.904 15.288 14.712C15.0967 14.52 15.0007 14.2827 15 14C14.9993 13.7173 15.0953 13.48 15.288 13.288C15.4807 13.096 15.718 13 16 13C16.282 13 16.5197 13.096 16.713 13.288C16.9063 13.48 17.002 13.7173 17 14C16.998 14.2827 16.902 14.5203 16.712 14.713C16.522 14.9057 16.2847 15.0013 16 15Z" fill="white"/>
</svg>
