<svg width="26" height="26" viewBox="0 0 26 26" fill="none" xmlns="http://www.w3.org/2000/svg">
<path d="M13 18.4075C12.4554 18.4075 11.9332 18.1912 11.5481 17.8061C11.1631 17.4211 10.9468 16.8989 10.9468 16.3543C10.9468 15.2148 11.8604 14.3011 13 14.3011C13.5445 14.3011 14.0668 14.5174 14.4518 14.9025C14.8369 15.2875 15.0532 15.8098 15.0532 16.3543C15.0532 16.8989 14.8369 17.4211 14.4518 17.8061C14.0668 18.1912 13.5445 18.4075 13 18.4075ZM19.1596 21.4873V11.2213H6.84032V21.4873H19.1596ZM19.1596 9.16806C19.7042 9.16806 20.2264 9.38438 20.6114 9.76943C20.9965 10.1545 21.2128 10.6767 21.2128 11.2213V21.4873C21.2128 22.0319 20.9965 22.5541 20.6114 22.9392C20.2264 23.3242 19.7042 23.5406 19.1596 23.5406H6.84032C6.29578 23.5406 5.77353 23.3242 5.38848 22.9392C5.00343 22.5541 4.78711 22.0319 4.78711 21.4873V11.2213C4.78711 10.0817 5.70079 9.16806 6.84032 9.16806H7.86693V7.11485C7.86693 5.75348 8.40773 4.44787 9.37036 3.48524C10.333 2.52261 11.6386 1.98181 13 1.98181C13.674 1.98181 14.3415 2.11458 14.9643 2.37254C15.5871 2.6305 16.1529 3.0086 16.6296 3.48524C17.1062 3.96189 17.4843 4.52775 17.7423 5.15052C18.0002 5.77329 18.133 6.44077 18.133 7.11485V9.16806H19.1596ZM13 4.03503C12.1831 4.03503 11.3998 4.35951 10.8222 4.93708C10.2446 5.51466 9.92014 6.29803 9.92014 7.11485V9.16806H16.0798V7.11485C16.0798 6.29803 15.7553 5.51466 15.1777 4.93708C14.6001 4.35951 13.8168 4.03503 13 4.03503Z" fill="black"/>
</svg>
