<svg width="28" height="28" viewBox="0 0 28 28" fill="none" xmlns="http://www.w3.org/2000/svg">
<path d="M5.8333 22.1666C5.50275 22.1666 5.22586 22.0546 5.00264 21.8306C4.77942 21.6066 4.66742 21.3298 4.66664 21C4.66586 20.6702 4.77786 20.3933 5.00264 20.1693C5.22742 19.9453 5.5043 19.8333 5.8333 19.8333H6.99997V11.6666C6.99997 10.0528 7.48608 8.61893 8.4583 7.36515C9.43053 6.11137 10.6944 5.28965 12.25 4.89998V4.08332C12.25 3.5972 12.4203 3.1842 12.761 2.84432C13.1016 2.50443 13.5146 2.33409 14 2.33332C14.4853 2.33254 14.8987 2.50287 15.2401 2.84432C15.5816 3.18576 15.7515 3.59876 15.75 4.08332V4.89998C17.3055 5.28887 18.5694 6.11059 19.5416 7.36515C20.5139 8.6197 21 10.0535 21 11.6666V19.8333H22.1666C22.4972 19.8333 22.7745 19.9453 22.9985 20.1693C23.2225 20.3933 23.3341 20.6702 23.3333 21C23.3325 21.3298 23.2205 21.607 22.9973 21.8318C22.7741 22.0566 22.4972 22.1682 22.1666 22.1666H5.8333ZM14 25.6666C13.3583 25.6666 12.8092 25.4384 12.3526 24.9818C11.8961 24.5253 11.6674 23.9758 11.6666 23.3333H16.3333C16.3333 23.975 16.105 24.5245 15.6485 24.9818C15.1919 25.4391 14.6424 25.6674 14 25.6666ZM9.3333 19.8333H18.6666V11.6666C18.6666 10.3833 18.2097 9.2847 17.2958 8.37082C16.3819 7.45693 15.2833 6.99998 14 6.99998C12.7166 6.99998 11.618 7.45693 10.7041 8.37082C9.79025 9.2847 9.3333 10.3833 9.3333 11.6666V19.8333ZM3.49997 11.6666C3.16942 11.6666 2.89253 11.5403 2.6693 11.2875C2.44608 11.0347 2.35353 10.743 2.39164 10.4125C2.54719 8.95415 2.95553 7.5977 3.61664 6.34315C4.27775 5.08859 5.12358 3.99504 6.15414 3.06248C6.40692 2.84859 6.69392 2.75137 7.01514 2.77082C7.33636 2.79026 7.5938 2.93609 7.78747 3.20832C7.98114 3.48054 8.05892 3.7722 8.0208 4.08332C7.98269 4.39443 7.83686 4.66665 7.5833 4.89998C6.82497 5.61943 6.20275 6.45554 5.71664 7.40832C5.23053 8.36109 4.90969 9.39165 4.75414 10.5C4.71525 10.8305 4.57914 11.1078 4.3458 11.3318C4.11247 11.5558 3.83053 11.6674 3.49997 11.6666ZM24.5 11.6666C24.1694 11.6666 23.8875 11.5546 23.6541 11.3306C23.4208 11.1066 23.2847 10.8298 23.2458 10.5C23.0902 9.39165 22.7694 8.36109 22.2833 7.40832C21.7972 6.45554 21.175 5.61943 20.4166 4.89998C20.1639 4.66665 20.018 4.39443 19.9791 4.08332C19.9402 3.7722 20.018 3.48054 20.2125 3.20832C20.4069 2.93609 20.6647 2.79026 20.986 2.77082C21.3072 2.75137 21.5938 2.84859 21.8458 3.06248C22.8764 3.99582 23.7222 5.08937 24.3833 6.34315C25.0444 7.59693 25.4527 8.95337 25.6083 10.4125C25.6472 10.743 25.555 11.0347 25.3318 11.2875C25.1086 11.5403 24.8313 11.6666 24.5 11.6666Z" fill="black"/>
</svg>
