<svg width="24" height="24" viewBox="0 0 24 24" fill="none" xmlns="http://www.w3.org/2000/svg">
<path d="M14 7V5H22V7H14ZM14 11V9H22V11H14ZM14 15V13H22V15H14ZM8 14C7.16667 14 6.45833 13.7083 5.875 13.125C5.29167 12.5417 5 11.8333 5 11C5 10.1667 5.29167 9.45833 5.875 8.875C6.45833 8.29167 7.16667 8 8 8C8.83333 8 9.54167 8.29167 10.125 8.875C10.7083 9.45833 11 10.1667 11 11C11 11.8333 10.7083 12.5417 10.125 13.125C9.54167 13.7083 8.83333 14 8 14ZM2 20V18.1C2 17.75 2.08333 17.4167 2.25 17.1C2.41667 16.7833 2.65 16.5333 2.95 16.35C3.7 15.9 4.496 15.5627 5.338 15.338C6.18 15.1133 7.06733 15.0007 8 15C8.93267 14.9993 9.82033 15.112 10.663 15.338C11.5057 15.564 12.3013 15.9013 13.05 16.35C13.35 16.5333 13.5833 16.7833 13.75 17.1C13.9167 17.4167 14 17.75 14 18.1V20H2Z" fill="white"/>
</svg>
