<svg width="25" height="25" viewBox="0 0 25 25" fill="none" xmlns="http://www.w3.org/2000/svg">
<path fill-rule="evenodd" clip-rule="evenodd" d="M14.9902 5.92931C14.9903 5.14979 15.2633 4.39491 15.7619 3.79568C16.2604 3.19644 16.9531 2.79069 17.7196 2.64885C18.4861 2.507 19.2781 2.63802 19.958 3.01915C20.638 3.40029 21.1631 4.00749 21.4421 4.73535C21.7211 5.46322 21.7365 6.26581 21.4855 7.00382C21.2346 7.74183 20.7331 8.36867 20.0682 8.77554C19.4033 9.18241 18.6169 9.34363 17.8455 9.23121C17.0742 9.1188 16.3665 8.73984 15.8454 8.16012L13.0561 9.68155L9.93522 11.4648C10.372 12.2326 10.4864 13.1423 10.2535 13.9943L15.8454 17.0444C16.3925 16.4365 17.1438 16.0508 17.9565 15.9604C18.7693 15.87 19.587 16.0813 20.2542 16.5541C20.9215 17.0269 21.3919 17.7283 21.5761 18.525C21.7602 19.3218 21.6454 20.1585 21.2533 20.8761C20.8612 21.5938 20.2192 22.1425 19.4492 22.4179C18.6792 22.6934 17.8348 22.6765 17.0765 22.3704C16.3182 22.0643 15.6986 21.4903 15.3356 20.7575C14.9726 20.0248 14.8913 19.1842 15.1073 18.3954L9.51534 15.3464C9.08917 15.8204 8.53614 16.1624 7.92168 16.3319C7.30722 16.5015 6.65706 16.4915 6.04811 16.3031C5.43917 16.1147 4.89693 15.7558 4.48557 15.2689C4.0742 14.782 3.81092 14.1874 3.72688 13.5555C3.64284 12.9237 3.74156 12.281 4.01135 11.7035C4.28114 11.126 4.71071 10.6378 5.24924 10.2968C5.78777 9.95579 6.41271 9.77618 7.05012 9.77921C7.68754 9.78225 8.31074 9.96781 8.84599 10.3139L12.3057 8.3367L15.1073 6.80808C15.0299 6.52155 14.9906 6.22609 14.9902 5.92931ZM18.3267 4.13274C17.8502 4.13274 17.3933 4.32202 17.0563 4.65895C16.7194 4.99587 16.5301 5.45283 16.5301 5.92931C16.5301 6.40578 16.7194 6.86275 17.0563 7.19967C17.3933 7.53659 17.8502 7.72587 18.3267 7.72587C18.8032 7.72587 19.2601 7.53659 19.5971 7.19967C19.934 6.86275 20.1233 6.40578 20.1233 5.92931C20.1233 5.45283 19.934 4.99587 19.5971 4.65895C19.2601 4.32202 18.8032 4.13274 18.3267 4.13274ZM7.03403 11.319C6.55756 11.319 6.10059 11.5083 5.76367 11.8452C5.42675 12.1821 5.23747 12.6391 5.23747 13.1156C5.23747 13.592 5.42675 14.049 5.76367 14.3859C6.10059 14.7228 6.55756 14.9121 7.03403 14.9121C7.51051 14.9121 7.96747 14.7228 8.30439 14.3859C8.64131 14.049 8.8306 13.592 8.8306 13.1156C8.8306 12.6391 8.64131 12.1821 8.30439 11.8452C7.96747 11.5083 7.51051 11.319 7.03403 11.319ZM16.5301 19.2752C16.5301 18.7987 16.7194 18.3418 17.0563 18.0048C17.3933 17.6679 17.8502 17.4786 18.3267 17.4786C18.8032 17.4786 19.2601 17.6679 19.5971 18.0048C19.934 18.3418 20.1233 18.7987 20.1233 19.2752C20.1233 19.7517 19.934 20.2086 19.5971 20.5456C19.2601 20.8825 18.8032 21.0718 18.3267 21.0718C17.8502 21.0718 17.3933 20.8825 17.0563 20.5456C16.7194 20.2086 16.5301 19.7517 16.5301 19.2752Z" fill="black"/>
</svg>
