<svg width="24" height="24" viewBox="0 0 24 24" fill="none" xmlns="http://www.w3.org/2000/svg">
<path d="M16 21C15.45 21 14.9793 20.8043 14.588 20.413C14.1967 20.0217 14.0007 19.5507 14 19V15C14 14.45 14.196 13.9793 14.588 13.588C14.98 13.1967 15.4507 13.0007 16 13H20C20.55 13 21.021 13.196 21.413 13.588C21.805 13.98 22.0007 14.4507 22 15V19C22 19.55 21.8043 20.021 21.413 20.413C21.0217 20.805 20.5507 21.0007 20 21H16ZM2 18V16H11V18H2ZM16 11C15.45 11 14.9793 10.8043 14.588 10.413C14.1967 10.0217 14.0007 9.55067 14 9V5C14 4.45 14.196 3.97933 14.588 3.588C14.98 3.19667 15.4507 3.00067 16 3H20C20.55 3 21.021 3.196 21.413 3.588C21.805 3.98 22.0007 4.45067 22 5V9C22 9.55 21.8043 10.021 21.413 10.413C21.0217 10.805 20.5507 11.0007 20 11H16ZM2 8V6H11V8H2Z" fill="white"/>
</svg>
